<?xml version="1.0" encoding="utf-8"?>
<!-- Generator: Adobe Illustrator 16.0.0, SVG Export Plug-In . SVG Version: 6.00 Build 0)  -->
<!DOCTYPE svg PUBLIC "-//W3C//DTD SVG 1.1//EN" "http://www.w3.org/Graphics/SVG/1.1/DTD/svg11.dtd">
<svg version="1.1" id="Layer_1" xmlns="http://www.w3.org/2000/svg" xmlns:xlink="http://www.w3.org/1999/xlink" x="0px" y="0px"
	 width="132.473px" height="132.474px" viewBox="0 0 132.473 132.474" enable-background="new 0 0 132.473 132.474"
	 xml:space="preserve">
<g>
	<path d="M81.747,54.834c-0.025,0.307-0.064,0.609-0.127,0.902c-0.002,0.072-0.016,0.138-0.021,0.208
		C81.682,55.594,81.729,55.223,81.747,54.834z"/>
	<path d="M66.235,0C29.654,0,0,29.655,0,66.236c0,36.582,29.654,66.237,66.235,66.237c36.583,0,66.238-29.655,66.238-66.237
		C132.473,29.655,102.819,0,66.235,0z M74.19,105.115c5.346-2.296,10.111-6.844,10.762-13.383
		c0.596-6.031-2.369-11.232-6.385-15.078c-3.818-3.66-8.375-6.02-12.528-9.143c-2.393-1.799-6.028-5.412-4.748-9.075
		c-1.664,1.562-2.978,3.745-3.495,6.075c-1.035,4.652,1.595,8.275,4.313,11.482c2.75,3.238,2.537,8.799-2.1,9.904
		c-1.986,0.471-4.088-0.395-5.289-2.181c-1.291-1.92-1.006-3.884-0.484-6.03c-4.336,3.346-7.82,8.436-7.81,14.433
		c0.01,5.501,4.209,10.876,8.698,12.991c-8.896-2.232-16.773-8.543-19.23-18.459c-2.46-9.924,0.887-19.925,6.352-27.878
		c2.732-3.974,5.932-7.538,9.255-10.925c3.096-3.151,6.505-6.047,9.31-9.518c2.891-3.578,6.506-9.979,3.761-14.818
		c4.984,4.058,9,10.838,8.328,17.822c-0.537,5.572-4.371,11.246-0.613,16.509c2.334,3.269,7.049,2.579,8.801-0.573
		c-0.039,0.049-0.072,0.104-0.115,0.148c0.293-0.514,0.516-1.077,0.648-1.684c0.008-0.484-0.07-1.025-0.312-1.662
		c0.162,0.092,0.299,0.184,0.459,0.273c8.758,4.951,15.826,13.598,15.629,24.834C97.157,92.84,85.485,102.398,74.19,105.115z"/>
</g>
</svg>
