<?xml version="1.0" encoding="utf-8"?>
<!-- Generator: Adobe Illustrator 16.0.0, SVG Export Plug-In . SVG Version: 6.00 Build 0)  -->
<!DOCTYPE svg PUBLIC "-//W3C//DTD SVG 1.1//EN" "http://www.w3.org/Graphics/SVG/1.1/DTD/svg11.dtd">
<svg version="1.1" id="Layer_1" xmlns="http://www.w3.org/2000/svg" xmlns:xlink="http://www.w3.org/1999/xlink" x="0px" y="0px"
	 width="132.473px" height="132.474px" viewBox="0 0 132.473 132.474" enable-background="new 0 0 132.473 132.474"
	 xml:space="preserve">
<path d="M66.235,0C29.654,0,0,29.655,0,66.236c0,36.582,29.654,66.238,66.235,66.238c36.583,0,66.238-29.656,66.238-66.238
	C132.473,29.655,102.819,0,66.235,0z M98.061,66.044l-0.922,4.718l-4.547,22.903l-34.287,11.417l-29.74-11.958l3.009-15.75h12.647
	l-1.231,6.845l17.98,7.166l20.75-7.228l2.873-14.783H33.112l2.495-12h51.514l1.607-9H37.248l2.53-12h64.129L98.061,66.044z"/>
</svg>
