<?xml version="1.0" encoding="utf-8"?>
<!-- Generator: Adobe Illustrator 16.0.0, SVG Export Plug-In . SVG Version: 6.00 Build 0)  -->
<!DOCTYPE svg PUBLIC "-//W3C//DTD SVG 1.1//EN" "http://www.w3.org/Graphics/SVG/1.1/DTD/svg11.dtd">
<svg version="1.1" id="Layer_1" xmlns="http://www.w3.org/2000/svg" xmlns:xlink="http://www.w3.org/1999/xlink" x="0px" y="0px"
	 width="132.473px" height="132.474px" viewBox="0 0 132.473 132.474" enable-background="new 0 0 132.473 132.474"
	 xml:space="preserve">
<g>
	<path d="M50.144,71.878c0,1.133,0.855,1.662,2.441,1.662c0.868,0,1.931-0.076,2.931-0.265v-3.89
		C51.516,69.764,50.144,70.368,50.144,71.878z"/>
	<path d="M20.683,68.063c0,3.097,1.737,4.796,4.721,4.796c0.641,0,1.112-0.037,2.112-0.149v-9.327c0-0.228-1.358-0.302-2.075-0.302
		C22.496,63.081,20.683,64.894,20.683,68.063z"/>
	<path d="M94.203,65.497l0.313-1.926V63c0,0-0.852,0-0.889,0h-0.416c-1.133,0-2.453,0.324-3.361,0.891
		c-1.396,0.793-2.113,2.256-2.113,4.296c0,2.907,1.728,4.583,4.296,4.583c0.793,0,1.483-0.136,2.483-0.363v-0.415v-1.585
		c0-0.68-0.156-1.436-0.156-2.229L94.203,65.497z"/>
	<path d="M66.235,0C29.654,0,0,29.655,0,66.236c0,36.582,29.654,66.237,66.235,66.237c36.583,0,66.238-29.655,66.238-66.237
		C132.473,29.655,102.819,0,66.235,0z M14.755,68.178c0-5.928,4.041-9.779,10.119-9.779c0.944,0,1.643,0.076,2.643,0.303V50h6v26.75
		c-3,0.565-5.378,0.792-7.757,0.792C18.662,77.542,14.755,74.333,14.755,68.178z M42.516,72.294c0,4.643-0.42,6.872-1.439,8.797
		c-0.943,1.85-2.23,3.021-4.797,4.305l-5.421-2.568c2.568-1.208,3.791-2.264,4.585-3.889c0.83-1.66,1.072-3.587,1.072-8.646V59h6
		V72.294z M42.516,56h-6v-6h6V56z M60.516,76.976c-3,0.377-6.134,0.643-8.55,0.643c-4.871,0-6.778-1.7-6.778-5.476
		c0-4.079,2.328-5.967,10.328-6.571v-1.283c0-1.057-0.611-1.435-2.083-1.435c-2.152,0-4.917,0.604-6.917,1.775V60H45.98
		c2.567-1,4.965-1.669,7.646-1.669c2.982,0,5.163,0.826,6.031,2.375c0.491,0.867,0.858,2.035,0.858,4.451V76.976z M80.516,77h-6
		V66.139c0-2.228-0.5-3.058-2.576-3.058c-0.793,0-1.424,0.074-2.424,0.414V77h-6V60h-0.542c3.437-1,6.211-1.462,9.081-1.462
		c2.982,0,5.362,0.609,6.647,1.932c1.207,1.246,1.813,2.535,1.813,5.443V77z M99.516,63.308v0.604l0.019,2.454l-0.028,3.172
		c0.037,0.792,0.01,1.586,0.01,2.378c0,0.718,0,1.059,0,1.587c0,4.984-0.378,7.325-1.624,9.25c-1.812,2.832-4.8,4.229-9.255,4.229
		c-2.266,0-4.121-0.34-6.121-1.133V80h-0.338c2.037,1,4.413,1.791,6.565,1.791c3.812,0,5.772-1.304,5.772-5.004
		c0-0.037,0-0.076,0-0.113c-1,0.565-2.56,0.792-4.069,0.792c-5.098,0-8.493-3.36-8.493-8.684c0-6.608,4.723-10.346,13.219-10.346
		c2.492,0,4.759,0.265,7.554,0.83l-1.953,4.194C99.224,63.159,100.516,63.421,99.516,63.308z M111.489,77.807
		c-5.816,0-9.402-3.663-9.402-9.553c0-6.117,3.699-9.931,9.629-9.931c5.814,0,9.363,3.663,9.363,9.591
		C121.079,73.992,117.379,77.807,111.489,77.807z"/>
	<path d="M111.639,63.005c-2.303,0-3.625,1.851-3.625,5.059c0,3.211,1.322,5.061,3.588,5.061c2.227,0,3.549-1.851,3.549-5.061
		C115.151,64.894,113.866,63.005,111.639,63.005z"/>
</g>
</svg>
