<?xml version="1.0" encoding="utf-8"?>
<!-- Generator: Adobe Illustrator 16.0.0, SVG Export Plug-In . SVG Version: 6.00 Build 0)  -->
<!DOCTYPE svg PUBLIC "-//W3C//DTD SVG 1.1//EN" "http://www.w3.org/Graphics/SVG/1.1/DTD/svg11.dtd">
<svg version="1.1" id="Layer_1" xmlns="http://www.w3.org/2000/svg" xmlns:xlink="http://www.w3.org/1999/xlink" x="0px" y="0px"
	 width="132.473px" height="132.474px" viewBox="0 0 132.473 132.474" enable-background="new 0 0 132.473 132.474"
	 xml:space="preserve">
<g>
	<path d="M66.235,0C29.654,0,0,29.655,0,66.236c0,36.582,29.654,66.237,66.235,66.237c36.583,0,66.238-29.655,66.238-66.237
		C132.473,29.655,102.819,0,66.235,0z M24.475,77.338c-2.2-8.609,2.391-17.949,11.286-25.482l-6.793-4.02l25.48-6.573
		c-0.238,0.082-0.545,0.218-0.889,0.384c0.337-0.126,0.655-0.268,0.996-0.389C40.957,47.5,33.037,61.179,36.381,74.266
		c3.341,13.084,16.842,21.238,31.75,20.129C46.775,97.848,27.918,90.819,24.475,77.338z M62.562,81.924
		c-4.062,0-7.296-1.115-9.612-3.32c-2.305-2.201-3.475-5.243-3.475-9.037c0-3.4,0.99-6.711,2.941-9.837
		c1.957-3.126,4.671-5.628,8.062-7.432c3.399-1.807,7.113-2.722,11.035-2.722c2.822,0,5.033,0.646,6.568,1.922
		c1.527,1.277,2.268,2.844,2.268,4.799c0,1.612-0.625,3.271-1.861,4.92c-1.248,1.662-3.316,3.132-6.152,4.367
		c-2.865,1.252-7.307,2.389-13.194,3.381l-0.334,0.058l-0.163,2.415c0,2.412,0.638,4.301,1.897,5.618
		c1.258,1.321,2.963,1.989,5.062,1.989c1.719,0,3.432-0.396,5.092-1.184c1.576-0.754,3.521-2.256,5.744-4.389
		c0.338,0.249,1.123,0.83,1.6,1.18c-2.496,2.559-4.971,4.455-7.359,5.549C68.178,81.345,65.448,81.924,62.562,81.924z
		 M103.506,84.638l-25.48,6.572c0.238-0.083,0.545-0.218,0.889-0.386c-0.336,0.129-0.656,0.268-0.994,0.391
		c13.598-6.242,21.516-19.922,18.172-33.009C92.75,45.123,79.25,36.968,64.341,38.082c21.356-3.457,40.214,3.575,43.657,17.051
		c2.201,8.61-2.391,17.95-11.285,25.485L103.506,84.638z"/>
	<path d="M68.413,63.506c2.521-2.27,3.799-4.858,3.799-7.701c0-1.229-0.318-2.215-0.941-2.934c-0.645-0.733-1.459-1.104-2.424-1.104
		c-1.82,0-3.521,1.029-5.057,3.063c-2.169,2.84-3.715,6.783-4.591,11.73l-0.108,0.604l0.605-0.111
		C63.651,66.33,66.585,65.135,68.413,63.506z"/>
</g>
</svg>
