<?xml version="1.0" encoding="utf-8"?>
<!-- Generator: Adobe Illustrator 16.0.0, SVG Export Plug-In . SVG Version: 6.00 Build 0)  -->
<!DOCTYPE svg PUBLIC "-//W3C//DTD SVG 1.1//EN" "http://www.w3.org/Graphics/SVG/1.1/DTD/svg11.dtd">
<svg version="1.1" id="Layer_1" xmlns="http://www.w3.org/2000/svg" xmlns:xlink="http://www.w3.org/1999/xlink" x="0px" y="0px"
	 width="132.473px" height="132.474px" viewBox="0 0 132.473 132.474" enable-background="new 0 0 132.473 132.474"
	 xml:space="preserve">
<path d="M66.235,0C29.654,0,0,29.655,0,66.236c0,36.582,29.654,66.237,66.235,66.237c36.583,0,66.238-29.655,66.238-66.237
	C132.473,29.655,102.819,0,66.235,0z M70.516,49h-19v12h18v10h-18v22h-11V39h30V49z M93.516,94.555c0,0-7.143,1.153-10.916-2.774
	c-4.998-5.205-4.084-10.616-4.084-10.616V38h10c0,0,0,37.766,0,41.062c0,4.389,5,4.282,5,4.282V94.555z"/>
</svg>
