<?xml version="1.0" encoding="utf-8"?>
<!-- Generator: Adobe Illustrator 16.0.0, SVG Export Plug-In . SVG Version: 6.00 Build 0)  -->
<!DOCTYPE svg PUBLIC "-//W3C//DTD SVG 1.1//EN" "http://www.w3.org/Graphics/SVG/1.1/DTD/svg11.dtd">
<svg version="1.1" id="Layer_1" xmlns="http://www.w3.org/2000/svg" xmlns:xlink="http://www.w3.org/1999/xlink" x="0px" y="0px"
	 width="132.473px" height="132.474px" viewBox="0 0 132.473 132.474" enable-background="new 0 0 132.473 132.474"
	 xml:space="preserve">
<g>
	<path d="M51.5,70.515c0,2.322,3.198,4.148,5.068,2.895c0.363-0.244,0.529-1.396,0.379-2.632c-0.242-1.993-0.377-2.139-1.454-1.562
		c-1.549,0.829-3.213-0.741-3.777-3.563c-0.428-2.142-0.559-2.099,2.559-0.821c0.391,0.16,1.386-0.384,2.211-1.209
		c1.509-1.51,2.006-3.323,0.911-3.323c-0.324,0-0.589,0.266-0.589,0.591c0,0.848-1.614,0.728-1.977-0.148
		c-0.212-0.511-0.664-0.329-1.47,0.59c-0.64,0.729-1.422,1.326-1.738,1.326c-0.315,0-0.741-0.597-0.947-1.326
		c-0.36-1.278-0.404-1.287-1.218-0.223c-0.713,0.932-0.72,1.229-0.041,1.908C50.134,63.734,51.5,68.647,51.5,70.515z"/>
	<path d="M58.055,58.171c-0.092-0.021-0.182-0.049-0.274-0.056C57.872,58.123,57.963,58.149,58.055,58.171z"/>
	<path d="M61.416,58.393c-1.028,0.841-1.393,1.016-1.764,0.843c-0.091-0.043-0.204-0.141-0.461-0.4
		c-0.349-0.352-0.488-0.454-0.778-0.573c-0.035-0.015-0.072-0.015-0.107-0.027c0.321,0.116,0.62,0.303,0.82,0.544
		c0.682,0.821,0.96,0.756,2.579-0.605c0.571-0.48,1.018-0.806,1.457-1.009c-0.028,0.013-0.053,0.021-0.082,0.035
		C62.638,57.414,62.425,57.566,61.416,58.393z"/>
	<path d="M56.632,58.188c-0.191-0.037-0.291-0.134-0.302-0.287c0.032,0.294,0.354,0.396,0.925,0.247
		c0.078-0.021,0.166-0.014,0.25-0.021c-0.092,0.006-0.185-0.005-0.274,0.013C56.885,58.211,56.789,58.218,56.632,58.188z"/>
	<path d="M56.352,57.71c0.093-0.336,0.792-1.632,2.191-4.064c2.843-4.94,6.666-11.17,7.088-11.55c0.046-0.042,0.048-0.042,0.095,0
		c0.251,0.226,1.729,2.504,3.747,5.779c2.73,4.431,5.002,8.327,5.002,8.584c0,0.156-0.241,0.25-0.746,0.291
		c-0.629,0.052-1.355,0.421-2.348,1.191c-0.473,0.366-0.674,0.504-0.904,0.614c-0.191,0.092-0.207,0.096-0.413,0.096
		c-0.203,0-0.224-0.005-0.382-0.085c-0.094-0.046-0.275-0.173-0.41-0.285c-0.396-0.331-0.875-0.517-1.654-0.779
		C66.627,57.17,65.566,57,64.663,57c-0.004,0-0.007,0-0.012,0c0.357,0,0.76,0.004,1.245,0.081c1.308,0.209,2.782,0.717,3.277,1.161
		c0.769,0.691,1.103,0.63,2.292-0.336c0.766-0.621,1.761-1.138,2.211-1.138c0.451,0,0.819-0.133,0.819-0.292
		c0-0.55-8.491-14.454-8.815-14.435c-0.38,0.022-9.083,14.611-9.351,15.675c-0.016,0.062-0.001,0.104,0,0.155
		C56.33,57.822,56.335,57.77,56.352,57.71z"/>
	<path d="M85.356,83.479c0,0.055,0.018,0.112,0.023,0.169c-0.088-0.601,0.256-1.134,1.225-2.146
		c1.979-2.065,1.668-3.966-0.885-5.401c-0.979-0.551-2.215-1.913-2.746-3.026l-0.965-2.024l-2.07,1.404
		c-2.543,1.727-5.646,1.815-8.236,0.236l-1.909-1.164l-2.218,1.507c-2.222,1.51-4.779,1.705-7.378,0.563
		c-0.716-0.314-1.032-0.192-1.032,0.399c0,0.47-0.676,1.16-1.502,1.537c-0.616,0.28-1.228,0.472-1.825,0.577
		c1.752-0.29,3.356-1.248,3.356-2.151c0-0.244,0.174-0.497,0.343-0.497c0.071,0,0.478,0.124,0.902,0.277
		c1.108,0.397,1.757,0.541,2.666,0.59c0.901,0.048,1.56-0.032,2.438-0.294c0.862-0.258,1.358-0.521,2.846-1.513
		c0.749-0.499,1.386-0.907,1.416-0.907c0.028,0,0.569,0.313,1.202,0.697c0.631,0.383,1.391,0.799,1.688,0.925
		c2.02,0.854,4.2,0.798,6.197-0.159c0.357-0.171,1.198-0.68,1.869-1.132c0.67-0.452,1.229-0.812,1.24-0.799s0.266,0.533,0.564,1.156
		s0.675,1.325,0.835,1.562c0.693,1.021,1.491,1.779,2.569,2.44c1.109,0.68,1.795,1.585,1.865,2.464
		c0.069,0.871-0.311,1.646-1.409,2.861C85.568,82.581,85.354,82.952,85.356,83.479z"/>
	<path d="M63.199,57.147c0.402-0.18,0.806-0.255,1.289-0.256C63.952,56.89,63.622,56.956,63.199,57.147z"/>
	<path d="M67.321,70.33c2.217-2.216,2.873-5.538,1.666-8.426c-0.943-2.257-2.581-3.103-4.889-2.522
		c-1.715,0.43-4.328,5.432-4.337,8.303C59.746,72.16,64.002,73.648,67.321,70.33z M62.934,63.394c0.88,1.16,2.445,1.361,3.043,0.392
		c0.218-0.353,0.102-0.937-0.259-1.298c-0.928-0.927-0.815-2.189,0.194-2.189c1.122,0,2.687,2.283,2.687,3.921
		c0,1.206-2.453,3.745-3.618,3.745c-0.28,0-1.041-0.531-1.689-1.18c-0.648-0.648-1.17-1.909-1.16-2.801
		C62.149,62.51,62.222,62.456,62.934,63.394z"/>
	<path d="M70.608,67.66c0.951,3.788,5.91,5.266,8.438,2.515c2.446-2.664,2.208-6.768-0.565-9.729
		c-1.433-1.528-4.615-1.792-5.917-0.49C71.362,61.157,70.163,65.884,70.608,67.66z M73.304,61.838
		c0.61,1.511,1.891,2.081,3.013,1.344c0.697-0.458,0.665-0.675-0.2-1.338c-1.153-0.884-1.378-2.135-0.384-2.135
		c0.889,0,4.069,3.479,4.069,4.451c0,0.949-2.259,2.624-3.538,2.624c-0.504,0-1.506-0.413-2.227-0.918
		c-0.969-0.678-1.302-1.486-1.273-3.095C72.795,60.972,72.889,60.81,73.304,61.838z"/>
	<path d="M17.3,60.955c0.001,0.291,9.58,4.033,9.79,3.824c0.033-0.032,0.345-0.903,0.693-1.936l0.632-1.877l-5.558-0.187
		C19.8,60.678,17.299,60.756,17.3,60.955z M27.108,64.702c-0.039,0.084-0.119,0.081-0.461-0.02
		c-1.854-0.539-8.302-3.086-9.204-3.635c-0.125-0.076-0.135-0.087-0.1-0.113c0.207-0.151,2.251-0.227,4.562-0.168
		c0.921,0.023,6.477,0.207,6.486,0.215C28.409,60.996,27.201,64.5,27.108,64.702z"/>
	<path d="M101.626,61.92c0.007,0.936,0.608,3.7,0.798,3.675c0.043-0.006,2.865-1.057,6.27-2.335l6.191-2.323l-6.633-0.024
		C102.315,60.891,101.62,60.997,101.626,61.92z M112.715,60.94l2.085,0.016l-5.021,1.881c-4.578,1.717-7.24,2.708-7.339,2.734
		c-0.024,0.006-0.049-0.013-0.07-0.055c-0.253-0.494-0.71-2.73-0.723-3.541c-0.005-0.314,0.034-0.442,0.175-0.572
		c0.324-0.299,0.982-0.405,2.79-0.455C105.526,60.923,109.74,60.919,112.715,60.94z"/>
	<path d="M66.235,0C29.654,0,0,29.655,0,66.236c0,36.582,29.654,66.237,66.235,66.237c36.583,0,66.238-29.655,66.238-66.237
		C132.473,29.655,102.819,0,66.235,0z M112.379,63.552c-5.107,1.9-9.371,3.512-9.475,3.58c-0.104,0.07,0.127,1.733,0.513,3.694
		c1.005,5.104,0.35,8.506-2.176,11.302c-1.133,1.254-2.97,2.581-4.085,2.948c-1.113,0.367-2.023,0.8-2.023,0.961
		s1.188,2.132,2.641,4.376c1.453,2.246,2.424,4.084,2.156,4.084c-0.435,0-11.031-4.095-27.51-10.629
		c-3.249-1.288-6.208-2.343-6.575-2.343c-0.685,0-6.598,2.242-23.941,9.075c-10.057,3.962-10.452,4.1-10.452,3.629
		c0-0.146,1.976-3.397,4.391-7.223c2.415-3.826,4.134-7.046,3.82-7.156c-0.314-0.11-1.401,0.089-2.416,0.442
		c-3.055,1.065-3.682,0.782-5.964-2.683c-2.469-3.749-2.558-4.136-1.271-5.559c0.841-0.929,0.79-1.146-0.589-2.524
		c-0.831-0.831-1.51-1.761-1.51-2.065c0-0.514-5.654-2.845-14.593-6.015c-2.027-0.719-3.685-1.429-3.685-1.576
		c0-0.148,4.282-0.184,9.516-0.078l9.516,0.192l0.929-1.465c3.926-6.191,9.854-11.783,12.491-11.783
		c0.549,0,1.664,0.523,2.478,1.163c1.325,1.041,1.506,1.688,1.742,6.183c0.146,2.762,0.442,5.199,0.661,5.418
		c0.219,0.219,0.912-0.068,1.541-0.638c0.803-0.727,1.648-0.923,2.84-0.662c1.235,0.271,1.939,0.086,2.585-0.682
		c0.969-1.15,5.821-8.928,5.821-9.331c0-0.138,0.961-1.78,2.135-3.651c1.174-1.871,2.526-4.028,3.005-4.794
		c0.851-1.362,0.984-1.2,6.099,7.37c5.28,8.85,8.121,12.115,9.545,10.968c0.992-0.801,6.203-0.846,7.658-0.066
		c0.828,0.443,1.354,0.438,1.811-0.02c0.949-0.949,3.221-0.783,3.814,0.276c0.468,0.837,0.587,0.837,1.281,0
		c0.42-0.507,1.666-0.921,2.769-0.921c1.558,0,2.151,0.323,2.666,1.452l0.662,1.453l10.233-0.362
		c5.629-0.198,10.234-0.234,10.234-0.078C121.667,59.971,117.487,61.653,112.379,63.552z"/>
	<path d="M83.334,66.784c1.764,6.938,4.229,9.312,6.761,6.515c0.851-0.939,1.001-1.962,0.818-5.573
		c-0.198-3.93-0.415-4.623-1.945-6.22c-2.764-2.885-6.178-2.148-4.179,0.901c1.062,1.621,2.357,1.344,1.9-0.406
		c-0.365-1.395,0.315-1.432,1.5-0.081c2.225,2.533,1.664,6.044-0.966,6.044c-1.801,0-2.361-0.771-3.534-4.864
		c-0.535-1.865-1.187-3.391-1.447-3.391c-0.87,0-1.258,0.768-0.717,1.419C81.82,61.483,82.633,64.028,83.334,66.784z"/>
	<path d="M90.641,85.922c-2.575,0.483-4.174-0.013-4.996-1.548c-0.128-0.238-0.213-0.447-0.254-0.646
		c0.079,0.465,0.357,0.971,0.816,1.435c0.877,0.884,2.252,1.147,4.275,0.816c0.451-0.074,1.021-0.135,1.266-0.136
		c0.781-0.001,1.26,0.383,2.17,1.742c0.628,0.938,2.002,3.239,2.002,3.354c0,0.06-0.064,0.101-0.155,0.101
		c-0.192,0-1.026-0.227-1.63-0.443c-0.793-0.284-10.449-4.015-13.637-5.269c-8.514-3.348-11.316-4.418-12.687-4.84
		c-0.843-0.259-1.521-0.393-2.11-0.432c1.468,0.098,3.835,0.993,10.267,3.535c5.514,2.18,10.953,4.302,12.088,4.717
		s3.475,1.317,5.198,2.005c1.966,0.783,2.971,0.973,2.694,0.506C92.87,85.608,92.776,85.521,90.641,85.922z"/>
	<path d="M64.505,80.138c-1.018,0.264-14.909,5.631-23.012,8.892c-4.001,1.61-4.502,1.802-5.251,2.008
		c-0.595,0.163-0.574,0.161-0.574,0.059c0-0.141,0.597-1.191,2.108-3.716c3.622-6.047,5.278-8.238,7.312-9.678
		c1.819-1.286,2.792-2.176,3.875-3.544l0.668-0.844l0.901,0.886c1.578,1.551,2.529,2,4.25,2.009c0.031,0,0.062-0.006,0.093-0.006
		c-1.431,0.027-2.736-0.47-3.745-1.479l-1.494-1.494l-1.206,1.533c-0.663,0.843-2.198,2.159-3.411,2.925
		c-1.502,0.948-3.36,3.261-5.823,7.246c-1.99,3.219-3.618,6.017-3.618,6.217s1.525-0.279,3.391-1.064
		c1.864-0.785,7.769-3.129,13.119-5.207c5.351-2.08,10.657-4.111,11.792-4.516c0.56-0.199,1.018-0.323,1.604-0.315
		C65.13,80.042,64.798,80.062,64.505,80.138z"/>
	<path d="M97.544,59.229c-0.614-0.2-0.71,0.02-0.362,0.842c2.246,5.338,2.371,8.018,0.408,8.771
		c-1.349,0.517-2.779-1.422-3.904-5.292c-0.871-2.996-1.781-4.347-2.469-3.66c-0.165,0.165,0.123,1.116,0.641,2.116
		c0.517,0.999,1.226,4.009,1.575,6.688c0.349,2.679,1.024,5.484,1.499,6.233c1.236,1.948,3.203,1.479,4.475-1.067
		c1.258-2.518,1.399-0.841,0.177,2.086c-1.271,3.039-5.042,3.951-9.411,2.273c-0.699-0.268-0.936,0.01-0.936,1.099
		c0,0.802-0.536,2.139-1.191,2.972l-1.189,1.513l1.632,0.276c2.819,0.476,6.684-0.142,8.987-1.437
		c4.061-2.281,5.001-6.503,3.207-14.384C99.182,61.673,98.433,59.518,97.544,59.229z"/>
	<path d="M46.202,64.157c-0.654-1.899-1.188-3.943-1.188-4.541c0-2.035-1.024-1.095-1.791,1.646
		c-1.015,3.625-4.067,6.705-6.631,6.693c-2.227-0.011-2.952-0.416-3.872-2.164c-1.65-3.136,0.148-7.948,4.738-12.673
		c3.362-3.46,5.198-3.773,5.198-0.887c0,4.502-3.104,11.128-4.739,10.118c-0.799-0.495-0.669-2.677,0.259-4.353
		c0.789-1.424,0.629-3.595-0.266-3.595c-1.037,0-3.091,3.778-3.363,6.187c-0.24,2.129-0.089,2.646,0.924,3.189
		c3.555,1.901,8.211-3.904,8.446-10.53c0.123-3.479-0.551-4.459-2.697-3.92c-3.123,0.783-11.536,11.637-11.536,14.883
		c0,2.538,1.274,4.322,3.519,4.928c3.816,1.026,7.505-0.799,10.119-5.008l1.099-1.769l0.003,2.402
		c0.003,3.48-2.267,5.315-9.432,7.621c-1.784,0.574-3.317,1.104-3.409,1.179c-0.332,0.271,3.045,5.013,3.57,5.013
		c0.298,0,2.042-0.432,3.875-0.958C47.503,75.183,49.018,72.341,46.202,64.157z"/>
	<path d="M55.103,76.189c0.241-0.012,0.479-0.035,0.718-0.074C55.578,76.157,55.34,76.176,55.103,76.189z"/>
</g>
</svg>
