<?xml version="1.0" encoding="utf-8"?>
<!-- Generator: Adobe Illustrator 16.0.0, SVG Export Plug-In . SVG Version: 6.00 Build 0)  -->
<!DOCTYPE svg PUBLIC "-//W3C//DTD SVG 1.1//EN" "http://www.w3.org/Graphics/SVG/1.1/DTD/svg11.dtd">
<svg version="1.1" id="Layer_1" xmlns="http://www.w3.org/2000/svg" xmlns:xlink="http://www.w3.org/1999/xlink" x="0px" y="0px"
	 width="132.473px" height="132.474px" viewBox="0 0 132.473 132.474" enable-background="new 0 0 132.473 132.474"
	 xml:space="preserve">
<path d="M66.235,0C29.654,0,0,29.655,0,66.236c0,36.582,29.654,66.237,66.235,66.237c36.583,0,66.238-29.655,66.238-66.237
	C132.473,29.655,102.819,0,66.235,0z M92.928,100.569l-26.765,7.531l-26.62-7.536L33.611,34h65.25L92.928,100.569z"/>
<path d="M66.309,64.197H55.458l-0.723-8.393h11.574v-8.102h-0.145h-20.4l0.146,2.17l2.026,22.57h18.374V64.197z M66.309,85.465
	h-0.145l-9.114-2.461l-0.58-6.51h-4.341h-3.76l1.012,12.877L66.164,94h0.145V85.465z"/>
<path d="M66.164,64.197v8.246h10.127L75.28,83.004l-9.116,2.461V94l16.784-4.629l0.143-1.445l1.881-21.559l0.289-2.17h-2.312H66.164
	z M66.164,47.703v5.063v3.038l0,0h19.821l0,0l0,0l0.145-1.734l0.434-4.197l0.146-2.17H66.164z"/>
</svg>
