<?xml version="1.0" encoding="utf-8"?>
<!-- Generator: Adobe Illustrator 16.0.0, SVG Export Plug-In . SVG Version: 6.00 Build 0)  -->
<!DOCTYPE svg PUBLIC "-//W3C//DTD SVG 1.1//EN" "http://www.w3.org/Graphics/SVG/1.1/DTD/svg11.dtd">
<svg version="1.1" id="Layer_1" xmlns="http://www.w3.org/2000/svg" xmlns:xlink="http://www.w3.org/1999/xlink" x="0px" y="0px"
	 width="132.472px" height="132.474px" viewBox="0 0 132.472 132.474" enable-background="new 0 0 132.472 132.474"
	 xml:space="preserve">
<path d="M66.235,0C29.654,0,0,29.655,0,66.236c0,36.582,29.654,66.237,66.235,66.237c36.583,0,66.237-29.655,66.237-66.237
	C132.472,29.655,102.818,0,66.235,0z M87.515,65.926c10.494-3.689,18.564,10.881-3.389,16.652c0,0,0.256-0.229,0.33-0.432
	c16.438-8.54,8.838-16.748,3.533-15.643c-1.301,0.271-1.879,0.506-1.879,0.506S86.593,66.253,87.515,65.926z M74.548,56.617
	c4.926,6.937-5.803,12.475-5.803,12.475s5.336-4.377,1.111-9.243C55.53,43.343,85.523,35.853,85.523,35.853
	C66.416,46.934,69.945,50.148,74.548,56.617z M55.601,45.799c5.999-9.008,22.62-13.377,18.948-27.841c0,0,9.102,9.106-8.634,23.109
	C51.69,52.3,62.671,58.705,65.907,66.021C57.605,58.53,51.512,51.937,55.601,45.799z M42.105,69.44
	c7.604-3.676,13.788-3.259,13.788-3.259s-15.923,3.782-5.639,5.154c4.343,0.582,12.998,0.45,21.061-0.225
	c6.59-0.557,13.207-1.738,13.207-1.738s-2.324,0.995-4.004,2.143C64.349,75.77,33.113,73.791,42.105,69.44z M56.667,88.318
	c6.941,0.791,10.491,0.678,18.139-0.771c0,0,2.014,1.262,4.822,2.354c-17.151,7.352-38.815-0.426-25.344-4.189
	C54.284,85.711,50.937,87.658,56.667,88.318z M52.188,76.119c0,0-3.756,2.781,1.979,3.373c7.416,0.766,13.273,0.828,23.406-1.123
	c0,0,1.402,1.42,3.607,2.197C60.444,86.631,37.349,81.045,52.188,76.119z M47.514,92.564c0,0-1.1-0.078-3.022,0.338
	c-1.844,0.396-7.705,2.283-4.58,3.645c8.696,3.785,39.999,2.879,49.899-0.121c5.205-1.578,2.729-3.619,2.729-3.619
	c9.07,4.09-19.705,12.316-54.673,6.645C25.044,97.373,44.037,90.115,47.514,92.564z M57.509,105.293
	c-10.369-0.666-12.385-2.334-12.385-2.334c9.851,1.623,26.459,1.92,39.924-0.615c11.938-2.248,13.039-5.078,13.039-5.078
	C97.513,104.732,73.287,106.303,57.509,105.293z"/>
</svg>
