<?xml version="1.0" encoding="utf-8"?>
<!-- Generator: Adobe Illustrator 16.0.0, SVG Export Plug-In . SVG Version: 6.00 Build 0)  -->
<!DOCTYPE svg PUBLIC "-//W3C//DTD SVG 1.1//EN" "http://www.w3.org/Graphics/SVG/1.1/DTD/svg11.dtd">
<svg version="1.1" id="Layer_1" xmlns="http://www.w3.org/2000/svg" xmlns:xlink="http://www.w3.org/1999/xlink" x="0px" y="0px"
	 width="132.473px" height="132.474px" viewBox="0 0 132.473 132.474" enable-background="new 0 0 132.473 132.474"
	 xml:space="preserve">
<path d="M66.236,0C29.655,0,0,29.655,0,66.237s29.655,66.237,66.236,66.237c36.583,0,66.237-29.655,66.237-66.237
	S102.818,0,66.236,0z M72.033,33.539l2.127-2.933c-3.932,7.104-0.188,15.829,5.84,20.401c1.057,0.799,2.195,1.496,3.393,2.07
	c0.629,0.303,1.277,0.57,1.936,0.805c0.512,0.182,1.098,0.373,1.629,0.502c6.734,1.635,12.225,0.506,15.49-4.197
	c-0.992,1.43-4.721,11.141-18.469,8.484c-0.303-0.057-0.594-0.164-0.887-0.256C83,58.389,82.91,58.357,82.818,58.33
	c-0.207-0.07-0.412-0.139-0.617-0.215c-4.975-1.824-9.238-5.672-11.318-10.576C68.91,42.918,69.189,37.723,72.033,33.539z
	 M61.023,102.273c-0.508-0.094-0.994-0.271-1.486-0.42c-0.116-0.033-0.232-0.07-0.348-0.104c-0.483-0.15-0.964-0.305-1.439-0.471
	c-0.055-0.02-0.107-0.037-0.162-0.057c-0.434-0.152-0.865-0.314-1.291-0.479c-0.111-0.043-0.223-0.086-0.333-0.131
	c-0.46-0.182-0.916-0.371-1.368-0.568c-0.083-0.037-0.164-0.074-0.248-0.111c-0.395-0.176-0.785-0.357-1.173-0.543
	c-0.101-0.051-0.202-0.098-0.303-0.146c-0.056-0.027-0.114-0.055-0.171-0.082c-0.25-0.125-0.494-0.256-0.74-0.385
	c-0.19-0.098-0.384-0.193-0.572-0.295c-0.349-0.189-0.692-0.383-1.034-0.58c-0.127-0.072-0.255-0.143-0.381-0.215
	c-0.465-0.273-0.925-0.557-1.378-0.844c-0.128-0.082-0.254-0.17-0.381-0.254c-0.295-0.191-0.591-0.383-0.88-0.582
	c-0.031-0.021-0.06-0.043-0.091-0.064c-0.111-0.076-0.219-0.154-0.33-0.234c-0.305-0.213-0.606-0.43-0.906-0.65
	c-0.145-0.109-0.288-0.219-0.432-0.328c-0.271-0.207-0.541-0.418-0.808-0.631c-0.134-0.107-0.269-0.213-0.401-0.32
	c-0.326-0.27-0.65-0.543-0.969-0.818c-0.061-0.053-0.124-0.104-0.186-0.158c-0.006-0.004-0.011-0.008-0.017-0.014
	c-0.361-0.316-0.716-0.641-1.066-0.971c-0.106-0.098-0.212-0.201-0.318-0.303c-0.263-0.252-0.522-0.506-0.778-0.764
	c-0.105-0.104-0.21-0.209-0.312-0.314c-0.33-0.34-0.656-0.68-0.975-1.027c-0.012-0.016-0.023-0.025-0.037-0.041
	c-0.006-0.006-0.014-0.014-0.02-0.02c-0.326-0.359-0.646-0.727-0.959-1.096c-0.088-0.104-0.176-0.209-0.263-0.314
	c-0.233-0.281-0.463-0.562-0.688-0.846c-0.094-0.119-0.188-0.238-0.28-0.357c-0.253-0.326-0.503-0.656-0.745-0.99
	c-0.045-0.062-0.094-0.123-0.138-0.186c-0.009-0.01-0.017-0.021-0.023-0.031c-0.28-0.389-0.552-0.783-0.817-1.18
	c-0.082-0.121-0.16-0.246-0.24-0.371c-0.192-0.293-0.381-0.586-0.564-0.883c-0.095-0.152-0.186-0.305-0.277-0.457
	c-0.166-0.277-0.328-0.555-0.486-0.834c-0.09-0.158-0.179-0.312-0.266-0.475c-0.049-0.086-0.102-0.174-0.148-0.264
	c-0.083-0.15-0.158-0.307-0.238-0.459c-0.125-0.24-0.252-0.48-0.373-0.725c-5.094-10.184-5.924-22.652,0.744-32.236l5.207-6.602
	c-5.871,11.35-3.232,25.17,4.113,35.189c0.266,0.365,0.537,0.725,0.814,1.084c0.086,0.109,0.172,0.217,0.258,0.324
	c0.23,0.293,0.467,0.584,0.705,0.871c0.086,0.102,0.17,0.201,0.257,0.305c0.319,0.377,0.646,0.75,0.979,1.115
	c0.016,0.018,0.032,0.033,0.048,0.051c0.315,0.346,0.638,0.686,0.966,1.021c0.102,0.104,0.205,0.205,0.309,0.309
	c0.258,0.262,0.521,0.518,0.787,0.771c0.103,0.1,0.204,0.197,0.309,0.297c0.36,0.336,0.725,0.67,1.096,0.996
	c0.039,0.033,0.078,0.064,0.114,0.096c0.343,0.299,0.69,0.59,1.042,0.879c0.123,0.1,0.248,0.199,0.373,0.299
	c0.277,0.223,0.557,0.439,0.837,0.654c0.136,0.104,0.272,0.207,0.411,0.311c0.307,0.227,0.615,0.449,0.928,0.67
	c0.105,0.072,0.209,0.15,0.315,0.223c0.323,0.223,0.651,0.439,0.981,0.652c0.124,0.082,0.246,0.168,0.372,0.248
	c0.454,0.287,0.913,0.57,1.378,0.844c0.119,0.068,0.239,0.133,0.357,0.199c0.35,0.203,0.701,0.402,1.059,0.594
	c0.194,0.107,0.394,0.205,0.59,0.309c0.293,0.15,0.586,0.305,0.881,0.449c0.111,0.055,0.221,0.105,0.33,0.158
	c0.378,0.182,0.758,0.357,1.142,0.531c0.091,0.039,0.179,0.08,0.271,0.119c0.446,0.195,0.898,0.383,1.354,0.562
	c0.117,0.047,0.234,0.092,0.352,0.139c0.415,0.16,0.832,0.316,1.254,0.465c0.065,0.023,0.131,0.047,0.195,0.07
	c0.471,0.162,0.944,0.316,1.422,0.463c0.122,0.037,0.244,0.074,0.368,0.111c0.489,0.145,0.976,0.301,1.476,0.414
	c13.232,3.01,27.197,0.307,35.064-9.943C102.639,82.895,93.271,108.154,61.023,102.273z M73.811,79.109
	c-0.484-0.08-0.941-0.262-1.406-0.406c-0.146-0.045-0.291-0.094-0.439-0.141c-0.326-0.109-0.648-0.219-0.971-0.338
	c-0.15-0.055-0.303-0.109-0.453-0.166c-0.355-0.137-0.709-0.281-1.059-0.43c-0.096-0.039-0.191-0.076-0.285-0.117
	c-0.438-0.191-0.867-0.393-1.291-0.602c-0.031-0.014-0.062-0.027-0.094-0.043c-0.209-0.104-0.414-0.213-0.619-0.32
	c-0.105-0.055-0.211-0.105-0.315-0.164c-0.297-0.16-0.593-0.326-0.885-0.494c-0.047-0.027-0.094-0.053-0.142-0.082
	c-0.339-0.197-0.672-0.402-1.001-0.613c-0.1-0.061-0.193-0.129-0.292-0.193c-0.206-0.135-0.413-0.266-0.616-0.406
	c-0.014-0.01-0.025-0.02-0.039-0.029c-0.461-0.316-0.91-0.648-1.351-0.986c-0.099-0.076-0.195-0.154-0.293-0.229
	c-0.439-0.348-0.872-0.701-1.291-1.068c-0.003-0.004-0.007-0.006-0.011-0.01c-0.016-0.012-0.029-0.027-0.045-0.039
	c-0.379-0.334-0.745-0.678-1.105-1.027c-0.096-0.094-0.191-0.186-0.285-0.281c-0.371-0.367-0.734-0.74-1.082-1.123
	c-0.959-0.832-1.76-2.064-2.482-3.1c-0.793-1.137-1.502-2.33-2.133-3.561c-3.762-7.34-4.023-16.629,0.799-23.568l3.936-5.561
	c-3.207,5.418-3.606,12.094-1.755,18.041c1.767,5.734,5.481,10.791,10.173,14.49c0.1,0.08,0.202,0.158,0.303,0.238
	c0.439,0.336,0.887,0.668,1.346,0.984c0.213,0.145,0.43,0.287,0.646,0.428c0.102,0.066,0.199,0.137,0.301,0.201
	c0.328,0.209,0.66,0.412,0.998,0.609c0.064,0.039,0.133,0.074,0.197,0.111c0.271,0.158,0.547,0.314,0.824,0.465
	c0.125,0.064,0.25,0.129,0.375,0.193c0.217,0.111,0.432,0.225,0.652,0.332c0.426,0.211,0.859,0.412,1.299,0.604
	c0.094,0.043,0.189,0.08,0.285,0.121c0.352,0.148,0.705,0.291,1.062,0.428c0.146,0.057,0.295,0.111,0.445,0.166
	c0.326,0.119,0.654,0.232,0.986,0.34c0.141,0.047,0.281,0.094,0.424,0.137c0.465,0.146,0.934,0.283,1.41,0.408
	c10.707,2.779,20.742-0.781,25.924-8.244C104.457,64.064,98.709,83.234,73.811,79.109z"/>
</svg>
