<?xml version="1.0" encoding="utf-8"?>
<!-- Generator: Adobe Illustrator 16.0.0, SVG Export Plug-In . SVG Version: 6.00 Build 0)  -->
<!DOCTYPE svg PUBLIC "-//W3C//DTD SVG 1.1//EN" "http://www.w3.org/Graphics/SVG/1.1/DTD/svg11.dtd">
<svg version="1.1" id="Layer_1" xmlns="http://www.w3.org/2000/svg" xmlns:xlink="http://www.w3.org/1999/xlink" x="0px" y="0px"
	 width="132.473px" height="132.474px" viewBox="0 0 132.473 132.474" enable-background="new 0 0 132.473 132.474"
	 xml:space="preserve">
<path d="M66.235,0C29.654,0,0,29.655,0,66.236c0,36.582,29.654,66.238,66.235,66.238c36.583,0,66.238-29.656,66.238-66.238
	C132.473,29.655,102.819,0,66.235,0z M103.809,100.134c-1-0.236-1.536-0.801-2.009-1.178c-1.035-0.756-2.347-1.604-3.431-2.264
	c-1.744-1.129-3.953-1.742-5.838-2.873c-1.037-0.66-2.093-1.412-3.036-2.168c-0.895-0.66-1.919-1.932-2.532-2.873
	c-0.283-0.52-0.394-1.131-0.771-1.508c0.143-0.896,1.215-0.896,1.924-1.178c2.496-1.084,5.366-1.414,9.136-1.32
	c-0.094-0.988-2.45-2.166-3.206-2.686c-1.553-1.084-3.112-2.262-4.761-3.203c-0.848-0.52-2.309-0.943-3.203-1.32
	c-1.273-0.518-4.1-1.035-4.854-2.025c-1.367-1.838-2.355-4.1-3.299-6.361c-0.988-2.215-2.262-4.571-3.25-6.879
	c-0.473-1.131-0.709-2.121-1.273-3.204C69.92,52.45,64.879,46.89,58.659,42.979c-2.026-1.32-4.288-2.416-6.786-3.169
	c-1.413-0.424-3.109-0.436-4.617-0.436c-0.282,0-0.612,0-0.942,0c-0.848,0-1.555-1.214-2.262-1.685
	c-1.46-0.99-2.921-1.69-4.617-2.444c-0.66-0.236-2.403-0.917-3.016-0.445c-0.377,0.142-0.519,0.273-0.66,0.65
	c-0.33,0.565,0,1.408,0.235,1.927c0.707,1.508,1.696,2.4,2.592,3.672c0.801,1.083,1.744,2.354,2.356,3.626
	c1.226,2.639,1.743,5.56,2.874,8.198c0.472,0.99,1.084,2.12,1.743,2.968c0.519,0.707,1.414,1.272,1.696,2.168
	c0.612,0.942-0.848,4.052-1.178,5.042c-1.225,3.864-0.942,9.235,0.424,12.581c0.565,1.32,1.084,2.875,2.592,3.252
	c0.094-0.094,0.048-0.047,0.235-0.143c0.283-2.543,0.424-5.041,1.272-7.068c0.565-1.271,1.555-2.166,2.262-3.25
	c0.519,0.33,0.519,1.178,0.754,1.744c0.612,1.459,1.272,3.062,2.026,4.523c1.602,3.016,3.345,5.936,5.277,8.574
	c0.706,0.943,1.649,2.149,2.497,2.998c0.33,0.328,0.754,0.111,1.036,1.111c0.048,0,0.355,0,1.355,0v-0.246
	c-2-0.469-2.962-1.932-4.046-2.779c-2.168-1.602-4.661-4.051-6.073-6.361c-0.66-1.271-0.881-2.543-1.881-3.863c0,0,0-0.047,0-0.094
	c0,0.377-0.544,0.754-0.685,1.271c-0.613,2.404-0.32,5.043-2.44,5.938c-2.449,0.99-4.281-1.602-5.035-2.779
	c-2.449-3.959-3.108-10.508-1.458-15.833c0.377-1.178,0.401-2.592,1.061-3.534c-0.095-0.849-0.811-1.084-1.189-1.603
	c-0.659-0.895-1.232-1.932-1.75-2.921c-0.99-1.932-1.651-4.241-2.453-6.361c-0.33-0.848-0.376-1.649-0.754-2.45
	c-0.565-1.225-1.556-2.45-2.358-3.534c-1.13-1.555-4.288-4.57-3.016-7.633c1.98-4.9,8.906-1.178,11.592,0.519
	c0.707,0.424,1.461,1.319,2.168,1.602c1.178,0.095,2.355,0.142,3.533,0.236c2.215,0.518,4.288,0.942,6.031,1.932
	c8.151,4.758,13.381,9.612,18.282,17.622c0.99,1.696,1.555,3.534,2.357,5.372c1.178,2.733,2.496,5.56,3.863,8.198
	c0.66,1.225,1.084,2.592,1.932,3.629c0.377,0.471,1.318,0.613,1.838,0.848c1.602,0.801,3.439,1.414,4.945,2.404
	c2.688,1.695,5.55,3.723,7.952,5.795c0.943,0.754,1.583,1.932,2.583,2.779c0,0.141,0,0.283,0,0.424c0,0.236-1.733,0.424-2.487,0.66
	c-1.648,0.424-3.224,0.33-4.825,0.754c-0.943,0.234-2.223,0.611-3.26,0.754c0,0.049,0.021,0.049,0.065,0.094
	c0.613,1.697,3.897,3.158,5.358,4.195c1.838,1.318,3.575,2.92,4.94,4.711c0.473,0.471,1.485,0.943,1.956,1.412
	c0.283,0.473,0.252,1.086,1.252,1.508C103.809,100.087,103.809,100.134,103.809,100.134z M51.025,45.853
	c0,1.178-0.282,1.932-0.942,2.356c-0.047,0.047-0.094,0.095-0.142,0.142c-0.329-0.754-0.706-1.399-1.036-2.153
	c-0.472-0.66-1.131-0.823-1.508-1.823c-0.047,0,0.412,0,0.412,0v-0.312c1-0.142,0.901-0.236,1.655-0.236
	c0.425,0.377,0.852,0.613,1.181,1.084C50.881,45.241,50.79,45.57,51.025,45.853z"/>
</svg>
