<?xml version="1.0" encoding="utf-8"?>
<!-- Generator: Adobe Illustrator 16.0.0, SVG Export Plug-In . SVG Version: 6.00 Build 0)  -->
<!DOCTYPE svg PUBLIC "-//W3C//DTD SVG 1.1//EN" "http://www.w3.org/Graphics/SVG/1.1/DTD/svg11.dtd">
<svg version="1.1" id="Layer_1" xmlns="http://www.w3.org/2000/svg" xmlns:xlink="http://www.w3.org/1999/xlink" x="0px" y="0px"
	 width="132.473px" height="132.474px" viewBox="0 0 132.473 132.474" enable-background="new 0 0 132.473 132.474"
	 xml:space="preserve">
<circle cx="66.235" cy="66.237" r="66.237"/>
<path fill="none" stroke="#FFFFFF" stroke-linejoin="round" d="M53.246,78.695l6.768-34.261h8.038l-1.692,8.882h7.612
	c6.768,0.423,9.305,3.808,8.459,8.038l-2.961,17.341H71.01l2.961-15.649c0.424-2.115,0.424-3.384-2.539-3.384h-6.343l-3.807,19.034
	H53.246z"/>
<path fill="none" stroke="#FFFFFF" stroke-linejoin="round" d="M23.212,87.58l6.768-34.264h15.65
	c6.771,0.423,10.153,3.808,10.153,9.73c0,10.151-8.039,16.075-15.229,15.649h-7.613l-1.692,8.885H23.212z M34.633,72.352
	l2.115-12.69h5.499c2.962,0,5.072,1.27,5.072,3.807c-0.418,7.19-3.805,8.46-7.612,8.883H34.633z"/>
<path fill="none" stroke="#FFFFFF" stroke-linejoin="round" d="M79.893,87.58l6.344-34.264h16.076
	c6.768,0.423,10.152,3.808,10.152,9.73c-0.424,10.151-8.459,16.075-15.65,15.649h-7.193L87.93,87.58H79.893z M90.893,72.352
	l2.537-12.69h5.076c3.385,0,5.5,1.27,5.078,3.807c0,7.19-3.387,8.46-7.615,8.883H90.893z"/>
</svg>
