<?xml version="1.0" encoding="utf-8"?>
<!-- Generator: Adobe Illustrator 16.0.0, SVG Export Plug-In . SVG Version: 6.00 Build 0)  -->
<!DOCTYPE svg PUBLIC "-//W3C//DTD SVG 1.1//EN" "http://www.w3.org/Graphics/SVG/1.1/DTD/svg11.dtd">
<svg version="1.1" id="Layer_1" xmlns="http://www.w3.org/2000/svg" xmlns:xlink="http://www.w3.org/1999/xlink" x="0px" y="0px"
	 width="132.473px" height="132.474px" viewBox="0 0 132.473 132.474" enable-background="new 0 0 132.473 132.474"
	 xml:space="preserve">
<g>
	<path fill="none" d="M73.436,51.337h-8.937l1.986-10.428H57.05l-7.945,40.225h9.434l4.469-22.347h7.449
		c3.479,0,3.479,1.491,2.98,3.973l-3.477,18.374h9.932l3.475-20.359C84.36,55.808,81.381,51.833,73.436,51.337z"/>
	<path fill="none" d="M40.161,51.337H21.787l-7.945,40.228h9.435l1.987-10.431h8.939c8.439,0.5,17.879-6.455,17.879-18.374
		C52.083,55.808,48.11,51.833,40.161,51.337z M33.208,73.686H27.25l2.483-14.898h6.457c3.478,0,5.954,1.491,5.954,4.47
		C41.655,71.698,37.678,73.188,33.208,73.686z"/>
	<path fill="none" d="M106.711,51.337H87.836l-7.447,40.228h9.436l1.984-10.431h8.445c8.443,0.5,17.877-6.455,18.375-18.374
		C118.629,55.808,114.655,51.833,106.711,51.337z M108.204,63.257c0,8.441-3.977,9.932-8.941,10.429h-5.959l2.977-14.898h5.961
		C106.215,58.787,108.698,60.278,108.204,63.257z"/>
	<path d="M66.235,0C29.654,0,0,29.655,0,66.236c0,36.582,29.654,66.237,66.235,66.237c36.583,0,66.238-29.655,66.238-66.237
		C132.473,29.655,102.819,0,66.235,0z M34.204,81.134h-8.939l-1.987,10.431h-9.435l7.945-40.228h18.374
		c7.949,0.496,11.922,4.471,11.922,11.423C52.083,74.679,42.644,81.634,34.204,81.134z M69.959,81.134l3.477-18.374
		c0.498-2.481,0.498-3.973-2.98-3.973h-7.449l-4.469,22.347h-9.434l7.945-40.225h9.436l-1.986,10.428h8.937
		c7.945,0.496,10.924,4.471,9.93,9.438l-3.475,20.359H69.959z M100.254,81.134h-8.445l-1.984,10.431h-9.436l7.447-40.228h18.875
		c7.943,0.496,11.918,4.471,11.918,11.423C118.131,74.679,108.698,81.634,100.254,81.134z"/>
	<path d="M36.19,58.787h-6.457L27.25,73.686h5.958c4.47-0.497,8.447-1.987,8.937-10.429C42.145,60.278,39.668,58.787,36.19,58.787z"
		/>
	<path d="M102.241,58.787H96.28l-2.977,14.898h5.959c4.965-0.497,8.941-1.987,8.941-10.429
		C108.698,60.278,106.215,58.787,102.241,58.787z"/>
</g>
</svg>
