<?xml version="1.0" encoding="utf-8"?>
<!-- Generator: Adobe Illustrator 16.0.0, SVG Export Plug-In . SVG Version: 6.00 Build 0)  -->
<!DOCTYPE svg PUBLIC "-//W3C//DTD SVG 1.1//EN" "http://www.w3.org/Graphics/SVG/1.1/DTD/svg11.dtd">
<svg version="1.1" id="Layer_1" xmlns="http://www.w3.org/2000/svg" xmlns:xlink="http://www.w3.org/1999/xlink" x="0px" y="0px"
	 width="132.472px" height="132.474px" viewBox="0 0 132.472 132.474" enable-background="new 0 0 132.472 132.474"
	 xml:space="preserve">
<path d="M66.235,0C29.654,0,0,29.655,0,66.236c0,36.582,29.654,66.238,66.235,66.238c36.583,0,66.237-29.656,66.237-66.238
	C132.472,29.655,102.818,0,66.235,0z M93.367,30.643l4.314,3.138l-0.783,1.177l-3.662-1.961L93.367,30.643z M80.814,26.852
	l0.523,3.399l-5.361,0.131l-0.783-3.792L80.814,26.852z M64.209,28.682l3.138,3.53l-4.314,2.485l-3.139-3.792L64.209,28.682z
	 M49.566,39.926l4.576,3.007l-3.53,4.184l-4.708-3.138L49.566,39.926z M37.929,57.185l6.015,2.354l-1.831,5.098l-6.145-1.961
	L37.929,57.185z M30.606,85.558l0.785-6.537l6.799,0.523l-1.177,6.797L30.606,85.558z M74.539,60.192l-1.045,4.314l-4.445-3.792
	l1.699-3.399L74.539,60.192z M73.232,48.948l2.744-2.484l2.617,3.922l-1.57,2.746L73.232,48.948z M73.884,71.83l0.262,4.314
	l-5.49-2.354l0.26-4.576L73.884,71.83z M76.238,85.375l2.484,5.125l-6.928-0.404l-1.309-4.721H76.238z M83.037,45.548l-1.699-3.138
	l3.66-0.915l0.523,2.091L83.037,45.548z M96.457,43.063l-4-0.392V40.71l4,0.784V43.063z M100.296,42.411
	c0,0-3.924-4.446-11.113-3.661c-7.191,0.784-19.873,8.023-21.836,24.105c-1.961,16.082,5.754,33.52,5.754,33.52H38.32
	c0,0-0.914-5.67,1.309-16.652c2.222-10.982,5.49-18.264,11.113-28.724c5.622-10.46,14.644-19.068,27.718-20.245
	c13.076-1.177,23.404,9.293,23.404,9.293L100.296,42.411z"/>
</svg>
