<?xml version="1.0" encoding="utf-8"?>
<!-- Generator: Adobe Illustrator 16.0.0, SVG Export Plug-In . SVG Version: 6.00 Build 0)  -->
<!DOCTYPE svg PUBLIC "-//W3C//DTD SVG 1.1//EN" "http://www.w3.org/Graphics/SVG/1.1/DTD/svg11.dtd">
<svg version="1.1" id="Layer_1" xmlns="http://www.w3.org/2000/svg" xmlns:xlink="http://www.w3.org/1999/xlink" x="0px" y="0px"
	 width="132.473px" height="132.474px" viewBox="0 0 132.473 132.474" enable-background="new 0 0 132.473 132.474"
	 xml:space="preserve">
<g>
	<path d="M66.235,0C29.654,0,0,29.655,0,66.236c0,36.582,29.654,66.237,66.235,66.237c36.583,0,66.238-29.655,66.238-66.237
		C132.473,29.655,102.819,0,66.235,0z M91.184,90.839l-45.497,3.087l0.04-0.023c-3.796-0.108-12.252-0.456-12.583-12.349
		l4.143-7.579l0.004-0.05c0.005-0.003,0.014,0.005,0.021,0.005l0-0.001l-3.565-10.111c2.451-4.609,7.563-14.273,7.855-14.423
		c0.295-0.146,8.48-7.908,12.698-11.832l13.388-5.01l7.875,5.561l-5.002,15.885L53.243,70.344l0.273,0.002v-0.003l20.771,6.759
		l1.97-1.248l-5.598-21.901l20.298-1.361l0.661-1.371L75.422,37.983l9.37-5.179c7.814,1.332,10.019,6.661,9.858,12.235l0.038-0.078
		L91.184,90.839z"/>
	<path d="M52.977,70.354l-0.004-0.009l-0.132,0.122l-15.494,3.476c0.622,0.515,4.729,10.642,7.42,17.329l1.092,2.551l0.039-0.023
		L52.977,70.354z"/>
</g>
</svg>
