<?xml version="1.0" encoding="utf-8"?>
<!-- Generator: Adobe Illustrator 16.0.0, SVG Export Plug-In . SVG Version: 6.00 Build 0)  -->
<!DOCTYPE svg PUBLIC "-//W3C//DTD SVG 1.1//EN" "http://www.w3.org/Graphics/SVG/1.1/DTD/svg11.dtd">
<svg version="1.1" id="Layer_1" xmlns="http://www.w3.org/2000/svg" xmlns:xlink="http://www.w3.org/1999/xlink" x="0px" y="0px"
	 width="132.473px" height="132.474px" viewBox="0 0 132.473 132.474" enable-background="new 0 0 132.473 132.474"
	 xml:space="preserve">
<g>
	<path d="M66.235,28.104c-21.232,0-38.505,17.274-38.505,38.505c0,21.233,17.273,38.506,38.505,38.506
		c21.232,0,38.506-17.273,38.506-38.506C104.741,45.377,87.468,28.104,66.235,28.104z M31.616,66.609
		c0-5.02,1.077-9.784,2.997-14.09l16.516,45.247C39.579,92.154,31.616,80.311,31.616,66.609z M66.235,101.23
		c-3.397,0-6.677-0.498-9.78-1.41l10.388-30.184l10.642,29.154c0.069,0.172,0.156,0.328,0.248,0.477
		C74.134,100.535,70.267,101.23,66.235,101.23z M71.007,50.377c2.084-0.109,3.963-0.329,3.963-0.329
		c1.865-0.221,1.645-2.962-0.221-2.853c0,0-5.608,0.44-9.229,0.44c-3.401,0-9.117-0.44-9.117-0.44
		c-1.867-0.109-2.087,2.743-0.221,2.853c0,0,1.768,0.22,3.632,0.329l5.394,14.778l-7.577,22.722l-12.606-37.5
		c2.087-0.109,3.962-0.329,3.962-0.329c1.863-0.221,1.645-2.962-0.221-2.853c0,0-5.607,0.44-9.227,0.44
		c-0.65,0-1.416-0.016-2.229-0.042c6.19-9.397,16.831-15.604,28.925-15.604c9.013,0,17.22,3.446,23.379,9.09
		c-0.15-0.01-0.295-0.028-0.449-0.028c-3.4,0-5.812,2.962-5.812,6.144c0,2.853,1.646,5.267,3.4,8.12
		c1.316,2.306,2.854,5.268,2.854,9.548c0,2.962-1.14,6.401-2.635,11.192l-3.454,11.537L71.007,50.377z M96.614,50
		c2.703,4.931,4.24,10.589,4.24,16.609c0,12.772-6.922,23.922-17.215,29.923L94.216,65.96c1.975-4.939,2.632-8.888,2.632-12.4
		C96.848,52.286,96.765,51.103,96.614,50z"/>
	<path d="M66.235,0C29.654,0,0,29.655,0,66.237s29.654,66.237,66.235,66.237c36.583,0,66.237-29.655,66.237-66.237
		S102.818,0,66.235,0z M66.235,106.967c-22.253,0-40.355-18.104-40.355-40.358c0-22.253,18.102-40.355,40.355-40.355
		c22.252,0,40.357,18.103,40.357,40.355C106.593,88.863,88.487,106.967,66.235,106.967z"/>
</g>
</svg>
